<?xml version="1.0" encoding="UTF-8"?><svg id="Layer_1" xmlns="http://www.w3.org/2000/svg" xmlns:xlink="http://www.w3.org/1999/xlink" viewBox="0 0 981.28 1022.56"><defs><style>.cls-1{fill:url(#linear-gradient);}.cls-2{fill:#00ace7;}.cls-3{fill:url(#linear-gradient-3);}.cls-4{fill:url(#linear-gradient-4);}.cls-5{fill:url(#linear-gradient-2);}.cls-6{fill:url(#linear-gradient-5);}</style><linearGradient id="linear-gradient" x1="0" y1="511.28" x2="981.28" y2="511.28" gradientTransform="matrix(1, 0, 0, 1, 0, 0)" gradientUnits="userSpaceOnUse"><stop offset=".38" stop-color="#ccb2ce"/><stop offset=".44" stop-color="#c4b0cd"/><stop offset=".54" stop-color="#afacca"/><stop offset=".65" stop-color="#8ca6c6"/><stop offset=".79" stop-color="#5c9dc0"/><stop offset=".93" stop-color="#2091b9"/><stop offset="1" stop-color="#008cb6"/></linearGradient><linearGradient id="linear-gradient-2" x1="965.59" y1="594.82" x2="965.6" y2="594.82" xlink:href="#linear-gradient"/><linearGradient id="linear-gradient-3" x1="31" y1="524.81" x2="898.73" y2="524.81" xlink:href="#linear-gradient"/><linearGradient id="linear-gradient-4" x1="63.3" y1="530.78" x2="835.55" y2="530.78" xlink:href="#linear-gradient"/><linearGradient id="linear-gradient-5" x1="94.01" y1="544.58" x2="779.38" y2="544.58" xlink:href="#linear-gradient"/></defs><g><path class="cls-1" d="M959.43,456.26c-6.55-30.37-19.74-89.05-20.39-91.25-.65-2.21-27.95-104.44-54.07-151.48-4.54-8.18-9.34-16.2-14.4-24.02-18.88-29.19-41.37-55.73-67.83-78.62-29.88-25.85-64.16-46.17-100.49-61.55-36.84-15.59-75.63-26.35-114.78-34.34C532.08,3.71,475.01-3.51,418.47,1.75c-31.7,2.95-63.07,10.05-92.65,21.91-27.6,11.06-54.09,25.79-80.33,39.72-45.4,24.09-90.44,50.46-128.63,85.2-37.01,33.65-67.23,75.42-83.19,123.15-19.09,57.07-14.49,119.48-16.94,178.72-.13,3.25-.29,6.48-.47,9.72,0,.03,0,.07-.01,.1v.09c0,.07-.01,.15-.01,.24,0,.03,0,.06-.01,.09-.04,.56-.07,1.11-.11,1.66-.14,2.04-.29,4.07-.46,6.1-.61,7.57-1.32,15.13-1.92,22.7-1.17,14.87-2.1,29.75-2.97,44.64-.37,6.25-.72,12.5-1.06,18.75-.18,3.1-.35,6.2-.53,9.3-.09,1.67-.19,3.35-.28,5.02-.03,.41-.05,.83-.07,1.24,0,0,0,.04-.01,.09,0,.02-.01,.05,0,.07,0,.04,0,.07-.01,.11,0,.02-.01,.03,0,.05,0,.06-.01,.14-.02,.22v.05c0,.05,0,.1,0,.15v.1s0,.05-.01,.08v.07s0,.07-.01,.11v.04s0,.08-.01,.11v.02s0,.08-.01,.12c-.82,13.53-1.73,27.06-2.85,40.57-2.76,33.3-7.88,66.23-5.07,99.71,2.25,26.74,9.09,53.21,20.02,77.71,18.36,41.17,47.04,77.1,80.75,106.75,24.79,21.79,52.34,40.28,81.44,55.87,3.44,1.85,6.9,3.65,10.39,5.41,13.08,6.64,26.45,12.71,39.98,18.26,50.4,20.68,103.74,34.53,157.75,41.57,27.07,3.53,54.37,5.33,81.67,5.21,13.94-.05,27.85-.47,41.64-2.72,13.82-2.26,27.39-5.99,40.61-10.58,37.18-12.89,70.8-33.27,105.35-51.74,14.57-7.79,29.3-15.24,44.54-21.65,43.56-18.33,89.91-29.72,132.31-50.92,37.58-18.8,67.54-47.07,90.58-82.08,16.34-24.85,29.46-51.34,38.48-79.7,8.97-28.21,13.24-57.65,14.56-87.16,2.7-60.52-8.78-120.86-21.46-179.74Zm6.34,182.75s0,.06,0,.09v.09s0,.07-.01,.11c-.05,.75-.1,1.49-.16,2.24-.11,1.55-.24,3.09-.37,4.63-.32,3.6-.69,7.19-1.13,10.77-.37,3.07-.79,6.13-1.25,9.19-.27,1.78-.56,3.57-.86,5.34-.08,.49-.17,.98-.25,1.46,0,0,0,.01-.01,.04v.02s0,.03,0,.04v.03s-.01,.09-.03,.17c0,.01-.01,.03-.01,.04-.01,.03-.01,.07-.02,.11-.01,.06-.02,.11-.03,.17v.03c-.04,.22-.08,.46-.13,.69-1.3,6.61-2.8,13.18-4.55,19.69-1.67,6.2-3.68,12.77-5.4,17.59-15.39,43.16-42.39,86.48-77.77,114.99-31.33,25.24-69.62,39.2-107.09,52.57-24.24,8.66-49.01,16.43-72.54,26.92-24.66,11-48.08,24.55-71.8,37.39-8.91,4.82-17.89,9.58-26.99,14.09-15.56,7.73-31.46,14.75-47.97,20.21-26.05,8.63-52.52,10.97-79.82,10.83-53.35-.26-106.71-7.64-158.25-21.36-10.96-2.92-21.85-6.14-32.64-9.68-32.35-10.59-63.85-23.99-93.65-40.39-6.04-3.31-12.01-6.75-17.9-10.32-40.66-24.62-78.01-55.5-106.05-94.15-5.59-7.71-10.8-15.71-15.66-23.89-.57-.96-1.13-1.93-1.7-2.9-.04-.08-.09-.16-.13-.24-.03-.05-.07-.11-.09-.16-.03-.04-.05-.08-.07-.12-.01-.02-.02-.03-.03-.05-.02-.03-.03-.05-.04-.07t-.01-.02s0-.02-.02-.02c0,0-.01-.02-.01-.03-.11-.21-.23-.43-.35-.64-1.25-2.28-2.49-4.56-3.68-6.87-2.35-4.56-4.56-9.18-6.61-13.88-2.18-4.99-4.16-10.06-5.99-15.2l-.06-.18s-.02-.05-.03-.07c0-.03-.02-.07-.03-.1-.01-.02-.01-.04-.02-.06-.22-.67-.44-1.34-.65-2.01-.41-1.29-.81-2.59-1.2-3.89-.93-3.11-1.79-6.24-2.57-9.4-.7-2.79-1.34-5.6-1.92-8.42-.11-.48-.37-1.89-.48-2.44,0-.04,0-.07-.02-.1,0-.03,0-.05-.01-.06-.01-.04-.01-.06-.01-.06-.29-1.68-.57-3.36-.82-5.05-.45-3.07-.85-6.15-1.17-9.23-.2-1.85-.37-3.7-.52-5.56-.03-.46-.07-.93-.1-1.39,0-.04-.01-.07-.01-.11-.01-.07-.02-.18-.03-.3,0-.07,0-.14,0-.21v-.02c-.01-.11-.02-.24-.03-.38-.01-.12-.01-.25-.02-.38-.33-7.42-.31-14.84,.01-22.27,.01-.17,.07-1.08,.09-1.54v-.06s0-.03,.01-.04v-.08s0-.08,0-.09c.04-.59,.08-1.18,.13-1.78,.15-1.85,.32-3.69,.5-5.53,.46-4.46,.98-8.92,1.45-13.39,1.56-14.8,2.91-29.63,4.02-44.47,1.07-14.15,1.93-28.31,2.74-42.47,.36-6.2,.7-12.41,1.05-18.61,.17-3.13,.35-6.25,.53-9.38,.02-.3,.07-1.31,.12-2.14v-.07s.01-.07,.01-.1v-.02s.01-.05,.01-.08v-.09s0-.06,0-.09v-.16s.01-.04,.01-.06v-.07c.01-.07,.01-.13,.01-.19,.01-.05,.01-.09,.01-.13v-.02s.01-.02,0-.03c.01-.05,.01-.09,.01-.09,.01-.08,.01-.15,.01-.18,.06-.99,.12-1.97,.18-2.96,1.76-28.84,4.88-57.6,5.94-86.48,.54-14.51,.74-29.03,1.03-43.55,.15-7.26,.32-14.53,.57-21.79,.12-3.63,.26-7.26,.42-10.89,.07-1.67,.15-3.34,.24-5.01,.02-.51,.14-2.46,.19-3.37,.01-.1,.01-.19,.02-.26v-.1s.01-.08,.01-.1c.92-14.09,2.27-28.16,4.61-42.1,.13-.74,.26-1.49,.39-2.23,0-.04,.01-.07,.02-.11,.32-1.74,.68-3.47,1.05-5.2,.7-3.28,1.47-6.55,2.32-9.79,1.83-7.06,3.25-11.6,5.51-17.33,8.76-22.32,19.68-41.56,33.91-60.66,28.35-38.05,65.92-67.54,105.84-92.63,22.45-14.11,45.7-26.93,69.18-39.24,26.15-13.7,52.44-28.32,80.18-38.56,57.77-21.34,120.89-22.77,181.46-15.72,43.56,5.07,87.18,13.61,129.21,26.21,36.4,10.91,71.83,25.81,104.26,45.7,33.84,20.74,63.26,46.37,87.97,77.14,.7,.87,1.4,1.75,2.09,2.63,27.94,35.48,47.71,74.24,63.04,117.08,3.74,10.46,7.66,22.92,11.1,35.23,3.75,13.42,9.96,40.58,9.96,40.58,6.53,30.56,13.69,61.32,20.27,91.87,6.34,29.46,11.39,54.63,15.3,84.68,.95,7.22,1.77,14.46,2.45,21.71,.3,3.19,.57,6.38,.81,9.57,.12,1.59,.21,3.18,.34,4.77,0,.02,0,.04,.01,.06,0-.1-.01-.19-.01-.26,.01,.03,.01,.05,.01,.08,.03,.38,.06,.85,.06,.93,0-.02-.01-.07-.02-.14,.04,.91,.08,1.82,.13,2.73,.67,13.54,.62,27.07,0,40.61Z"/><path class="cls-5" d="M965.6,594.88s0-.06-.01-.08v-.04s.01,.08,.01,.12Z"/><path class="cls-2" d="M8.78,570.84v.1s0,.05-.01,.08c0-.06,.01-.12,.01-.18Z"/><path class="cls-2" d="M15.05,700.13h-.01c0-.07,0-.14,0-.21,0,.08,.02,.15,.02,.21Z"/><path class="cls-2" d="M15.09,675.23s0,.06-.01,.1v-.06s0-.03,.01-.04Z"/><path class="cls-2" d="M16.25,460.36c0,.07-.01,.15-.01,.24,0,.03,0,.06-.01,.09,0-.09,.01-.18,.01-.27,0-.02,.01-.04,.01-.06Z"/><path class="cls-2" d="M17.7,721.78v.05s-.01-.06-.01-.06c0,.01,.01,.01,.01,.01Z"/><path class="cls-2" d="M17.73,721.96v.03s0-.07-.02-.1c.01,.02,.02,.05,.02,.07Z"/><path class="cls-2" d="M41.35,785.2s0-.02-.02-.02c0,0-.01-.02-.01-.03,.02,.02,.02,.03,.03,.05Z"/><path class="cls-2" d="M965.66,595.81s-.01-.07-.02-.14c0-.07-.01-.16-.02-.28-.01-.1-.02-.2-.02-.33,0-.1-.01-.19-.01-.26v-.04s.01,.08,.01,.12c.03,.38,.06,.85,.06,.93Z"/></g><path class="cls-3" d="M875.09,479.23c-6.65-26-13.33-52-18.95-78.25-16.81-78.31-49.66-153.99-105.97-211.47-4.78-4.87-9.72-9.62-14.84-14.22-53.58-48.2-121.43-76.14-191.41-90.49-23.67-4.85-47.52-8.12-71.74-8.03-27.94,.11-55.78,4.16-82.74,11.42-27.84,7.51-54.51,18.35-80.28,31.22-22.47,11.23-44.89,22.6-66.84,34.81-19.47,10.83-38.69,22.38-56.89,35.29l-2.4,1.71c-16.78,12.07-32.66,25.32-47.04,40.26-30.09,31.26-53.4,70.65-61.62,113.55-9.71,50.68-4.28,102.45-9.88,153.49-5.89,53.75-23.23,105.48-30.72,159.01-3.61,25.79-4.4,51.69,1.96,77.14,4.61,18.43,12.86,35.49,22.96,51.49,9.01,14.27,18.41,28.57,29.31,41.47,12.92,15.29,27.71,29.01,43.48,41.31,16.23,12.66,33.53,23.88,51.55,33.86,20.64,11.44,42.22,21.24,64.16,29.69,26.63,10.25,54.03,18.6,81.86,25.02,17.41,4.01,35,7.27,52.67,9.76,22.37,3.16,44.93,5.07,67.53,5.49,24.08,.46,47.56-.94,70.85-7.56,7.81-2.22,15.47-4.82,23-7.69,39.54-15.1,75.74-37.93,114.46-55.06,21.61-9.55,44.05-16.87,65.38-27.13,18.54-8.92,36.43-19.24,52.99-31.47,32.53-24.04,58.47-55.16,79.99-89.2,13.12-20.75,24.73-42.11,32.25-65.57,7.03-21.93,10.28-44.96,10.55-67.96,.55-48.2-11.76-95.53-23.63-141.89Zm3.96,208.9c-8.15,21.84-20.15,41.92-33.02,61.27-11.05,16.62-23.23,32.54-36.97,47.03-27.39,28.88-61.05,50.36-97.15,66.72-20.83,9.43-42.61,16.46-63.34,26.09-22.38,10.39-43.94,22.43-66.02,33.42-22.53,11.2-45.75,21.59-70.26,27.61-22.57,5.54-45.56,6.05-68.68,5.36-88.79-2.65-179.42-25.73-257.38-68.62-1.07-.59-2.13-1.18-3.2-1.77-33.92-19-66.06-42.48-91.26-72.29-10.68-12.65-19.87-26.63-28.74-40.59-9.64-15.15-17.43-31.35-21.48-48.91-5.67-24.63-2.67-49.58,1.39-74.21,4.32-26.24,10.69-52.07,16.52-77.99,5.68-25.27,10.84-50.74,13.07-76.57,2.15-24.94,2.03-50.01,2.69-75.01,.65-24.63,1.71-49.61,7.21-73.72,4.82-21.11,14.04-41.05,25.55-59.34,19.42-30.9,45.75-56.17,75.05-77.55,3.69-2.7,7.42-5.33,11.2-7.9,5.86-3.99,11.79-7.87,17.8-11.65,34.33-21.64,70.88-40.13,107.3-57.75,49.86-24.12,104.29-39.02,159.96-37.93,39.9,.78,80.4,9.7,118.31,21.92,32.76,10.55,64.39,24.82,93.32,43.51,14.12,9.13,27.34,19.25,39.65,30.25,45.88,40.96,79.22,94.01,100.22,152.58,7.89,22,13.99,44.63,18.89,67.47,10.69,49.89,26.08,98.76,35.39,148.95,8.04,43.28,9.6,87.78-6.02,129.62Z"/><path class="cls-4" d="M826.91,459.87c-5.44-22.96-13.04-45.37-21.58-67.34-28.22-72.1-67.27-142.86-127.58-193.05-4.14-3.44-8.37-6.77-12.69-9.97-45.61-33.85-100.82-54.3-157.06-61.35-48.79-6.13-97.82,3.44-142.72,22.77-25.08,10.8-49.88,23.71-73.25,38.58-13.3,8.45-26.13,17.54-38.29,27.23-28.54,22.74-52.96,50.06-70.71,82.02l-.6,1.08c-18.84,34.32-26.85,71.73-36.3,109.33-5.55,22.11-11.83,44.23-20.46,65.37-7.84,19.23-17.27,37.79-26.18,56.54-9.44,19.88-18.53,39.96-25.47,60.87-7.08,21.33-10.37,43.03-10.69,65.5-.33,23.39,2.14,47.07,7.95,69.76,4.07,15.9,9.91,30.92,19.66,44.21,19.12,26.06,45.02,47.08,71.54,65.18,6.74,4.6,13.59,9.03,20.55,13.3,26.29,16.15,54.02,30,82.43,41.96,35.73,15.05,72.88,27.23,110.89,35.06,33.48,6.9,69.88,11.99,103.73,4.88,40.07-8.4,77.64-28.51,111.99-50.15,73.22-46.13,134.48-107.59,181.68-180,23.51-36.08,45.69-73.58,55.59-115.93,9.71-41.59,7.38-84.5-2.43-125.85Zm-32.17,192.05c-20.48,35.23-43.14,69.28-69.35,100.53-28.63,34.14-61.38,64.69-97.18,91.19-31.54,23.35-65.43,44.35-101.49,59.97-17.91,7.76-36.63,14.26-56.01,17.13-16.04,2.38-32.55,1.73-48.65,.3-36.07-3.19-71.67-11.78-106.01-23.07-36.55-12.02-72.12-27.29-105.94-45.65-9.14-4.96-18.19-10.15-27.08-15.61-21.24-13.04-41.58-27.64-60-44.37-10.94-9.94-21.18-20.77-29.86-32.75-9.68-13.36-14.87-28.77-18.48-44.77-5.21-23.1-6.89-47.23-5.2-70.84,1.49-20.82,7.05-40.56,14.6-59.95,14.86-38.17,36.23-73.59,50.02-112.17,7.63-21.34,13.71-43.14,19.06-65.16,4.45-18.28,8.52-36.69,14.37-54.59,4.15-12.71,9.34-25.04,15.49-36.87,10.57-20.42,23.96-39.36,39.64-56.24,26.11-28.1,58.06-50.18,91.3-69.01,.28-.16,.57-.32,.85-.48,40.95-23.14,84.16-42.57,131.23-48.51,38.76-4.9,77.44,.38,114.84,10.88,28.3,7.95,55.62,19.52,80.67,34.94,1.43,.88,2.86,1.78,4.27,2.69,57.12,36.58,98.68,92.05,128.96,152.07,9.85,19.53,18.6,39.6,26.57,59.96,16.11,41.47,29.02,85.29,28.73,130.15-.26,42.75-13.99,83.51-35.35,120.23Z"/><path class="cls-6" d="M779.1,499.93c-1.3-28.49-7.48-56.14-16.63-83.08-4.42-13-9.36-25.81-14.35-38.59-14.43-36.73-34.62-71.54-62.96-99.31-22.99-22.53-50.48-39.58-80.35-51.43-27.96-11.1-57.41-17.8-86.96-23.09-21.17-3.79-41.5-4.13-62.69,.1-22.69,4.52-44.58,12.62-65.63,22.1-37.38,16.83-74.66,37.33-104.55,65.76-13.07,12.44-24.6,26.45-33.86,41.95-9.26,15.51-15.15,32.6-24.23,48.19-9.57,16.45-20.23,32.19-28.46,49.41-5.63,11.78-9.78,24.11-15.4,35.87-.68,1.45-1.4,2.9-2.14,4.33-14.27,27.55-30.78,53.93-46.07,80.92-8.03,14.17-15.91,28.45-23.05,43.1-5.56,11.4-10.98,23.15-14.24,35.44-1.96,7.41-2.51,15.04-2.99,22.67-.72,11.32-.74,22.67,.13,33.99,1.26,16.56,4,34.91,13.29,49.1,14.03,21.45,36.41,37.83,57.34,51.95,5.82,3.94,11.74,7.74,17.73,11.42,23.41,14.41,47.98,26.98,72.99,38.29,31.89,14.42,64.81,26.85,98.58,36.13,26.71,7.34,55.5,14.02,83.41,12.25,14.71-.93,29.24-5.06,43.21-9.55,17.47-5.61,34.54-12.5,51.26-20.06,29.97-13.54,58.41-29.14,84.29-49.49,34.08-26.81,67.41-55.41,95.81-88.3,12.6-14.59,24.31-30.2,33.14-47.39,9.69-18.89,14.64-40.27,19.75-60.75,9.12-36.48,15.35-74.22,13.63-111.93Zm-6.59,55.64c-2.83,20.72-7.33,41.19-12.69,61.39-5.24,19.77-10.49,39.42-20.89,57.18-20.91,35.72-51.97,65.52-82.84,92.58-26.23,23-53.17,45.52-83.77,62.47-30.35,16.81-62.55,31.39-95.74,41.61-13.73,4.24-28.03,7.92-42.48,8.26-12.53,.29-25.08-1.05-37.44-3.05-31.88-5.16-63.04-14.79-93.25-26.05-32.4-12.08-64.03-26.41-94.38-43-8.74-4.78-17.45-9.74-26-14.97-17.5-10.69-34.37-22.47-49.66-36.02-8.45-7.49-16.54-15.66-22.9-25.03-10.03-14.74-11.97-34.87-12.59-52.19-.59-16.38-.51-33.6,4.83-49.28,4.29-12.59,10.23-24.65,16.29-36.46,14.87-28.99,31.8-56.87,48.03-85.1,5.47-9.51,10.95-19.04,16-28.78,.89-1.7,1.76-3.41,2.62-5.13,7.02-14.1,11.7-29.15,18.96-43.16,8.22-15.87,18.44-30.54,27.12-46.14,8.68-15.6,14.46-32.45,24.1-47.58,19.99-31.4,49.02-55.12,80.64-74.15,18.4-11.07,37.63-20.92,57.27-29.58,21.83-9.62,44.59-17.74,68.2-21.59,33.67-5.5,67.75,2.2,100.37,10.59,29.44,7.57,58.18,18.44,83.96,34.73,29.19,18.44,53.4,43.46,71.92,72.54,10.96,17.21,19.83,35.64,27.28,54.61,9.96,25.52,19.75,51.22,25.23,78.15,6.25,30.72,6.05,62.17,1.81,93.15Z"/></svg>