<?xml version="1.0" encoding="UTF-8"?><svg id="Layer_1" xmlns="http://www.w3.org/2000/svg" viewBox="0 0 158.83 187.8"><defs><style>.cls-1{fill:#219fb8;}</style></defs><path class="cls-1" d="M127.57,.28c-6.44-1.11-13.4,1.26-19.37,3.43-9.27,3.36-18.09,7.98-26.58,12.97-20.15,11.84-39.12,26.25-55.51,42.94C13.42,72.53-.24,89.19,0,108.34s15.29,31.51,29.77,40.92c18.78,12.22,39.91,21.06,61.13,28.08,9.57,3.17,19.29,5.99,29.16,8.05,6.6,1.38,13.62,2.78,20.4,2.32,12.26-.84,14.44-16.36,16.02-26.09,2.98-18.43,2.63-37.58,1.6-56.16-1.18-21.11-3.54-42.24-8.15-62.9-1.84-8.24-4.09-16.46-7.28-24.29-2.23-5.46-5.02-11.27-9.55-15.2-1.65-1.43-3.38-2.33-5.53-2.79-4.41-.95-5.66,15.78,0,17,2.45,.53,5.55,4.42,6.77,6.6,3.37,5.97,4.95,11.21,6.66,17.36,4.81,17.26,7.14,34.66,8.74,52.76,.83,9.42,1.28,17.68,1.44,27.33,.07,4.54,.07,9.08-.05,13.61-.05,1.92-.12,3.84-.21,5.75-.03,.57-.06,1.15-.09,1.72,0-.18,.07-1.15,0-.15-.07,1.1-.15,2.19-.24,3.29-.29,3.63-.68,7.26-1.24,10.87-.05,.35-.42,2.54-.26,1.65s-.25,1.25-.31,1.5c-.3,1.34-.62,2.67-.98,4-.63,2.32-1.58,5.67-4.21,6.69-.64,.25,.62-.17-.21,.06-.44,.12-.92,.19-1.38,.24-1.19,.13-2.37,.21-3.57,.21-3.03,.01-6.07-.31-9.07-.73-8.17-1.13-16.22-3.09-24.15-5.32-19.87-5.57-39.39-13.16-57.69-22.71-13.56-7.08-31.71-16.92-38.72-30.62-.34-.67-.64-1.36-.93-2.05-.64-1.57,.06,.21-.3-.91-.42-1.34,.08,1.2-.12-.6,.12,1.03,.05-.39-.01,.11-.15,1.18,.13-1,.21-1.41-.31,1.54,.13-.41,.28-.93,.5-1.78,.6-2.03,1.54-4.13,3.41-7.64,8.79-14.4,14.29-20.63,14.11-15.97,31.26-29.44,49.05-41.07,14.03-9.17,30.47-19.74,47.37-22.37,2.44-.38,4.92-.54,7.37-.11,4.6,.79,5.63-16.03,0-17Z"/></svg>