<?xml version="1.0" encoding="UTF-8"?><svg id="Layer_1" xmlns="http://www.w3.org/2000/svg" viewBox="0 0 170.47 178.35"><defs><style>.cls-1{fill:#219fb8;}</style></defs><path class="cls-1" d="M169.81,85.08c-1.45-6.96-5.89-13.13-10.46-18.4-6.43-7.42-13.9-13.99-21.56-20.1-18.34-14.62-38.78-27.26-60.37-36.48C63.02,3.95,41.94-4.6,26.52,2.98,11.96,10.13,7.06,31.5,4.33,45.82,.12,67.88-.66,90.65,.47,113.04c.9,17.97,2.11,37.3,8.58,54.29,1.73,4.53,3.92,8.94,8.88,10.31s10.58,.47,15.6-.5c17.79-3.45,35.05-10.62,51.48-18.07,18.9-8.57,37.45-18.35,54.62-30.04,11.03-7.51,25.85-17.31,29.78-30.94,1.01-3.5,1.37-7.38,.78-10.98-.35-2.13-1.37-7.34-4.6-5.94-2.94,1.27-3.01,8.07-2.61,10.46,.27,1.61,.04-1.21,.04-1.69,.02-1.47,.04-.77,.02-.42-.06,1.16,.17-.89,.18-.94-.4,1.4,.14-.19,.05-.02-.27,.5-.44,1.07-.71,1.58-.63,1.19,.28-.4-.3,.51-.32,.5-.66,.99-1,1.48-.82,1.14-1.72,2.23-2.65,3.28-4.55,5.15-10.08,9.44-15.62,13.47-15.09,10.99-31.6,20.12-48.34,28.32s-33.07,15.35-50.49,20.34c-6.13,1.76-12.48,3.36-18.87,3.71-2.14,.12-4.38,.14-6.47-.37-.6-.15-.41-.09-1.41-.55-.32-.14-.6-.36-.88-.56-.91-.64,.66,.64-.1-.16-.27-.29-.51-.7-.71-1.05,.81,1.42,.03,.03-.13-.32-.52-1.13-.99-2.26-1.42-3.43-.41-1.1,.24,.84-.23-.73-.21-.7-.42-1.39-.61-2.09-.46-1.65-.86-3.32-1.24-5-.85-3.82-1.18-5.79-1.83-10.24s-1.15-8.91-1.55-13.38c-1.71-18.84-1.75-38.95,.52-58.09,1.66-14.02,3.89-32.26,14.56-42.6,10.34-10.02,29.14-4.46,40.92-.37,20.27,7.04,39.35,17.94,56.93,30.14,14.29,9.91,29.83,21.28,39.43,36.1,.89,1.38,.79,1.19,1.56,2.84,.26,.55,.49,1.12,.69,1.7-.5-1.43-.09-.09,.05,.56,.54,2.61,2.65,5.61,5.12,3.05s2.01-8.43,1.34-11.63Z"/></svg>