<?xml version="1.0" encoding="UTF-8"?><svg id="Layer_1" xmlns="http://www.w3.org/2000/svg" viewBox="0 0 186.62 191.92"><defs><style>.cls-1{fill:#219fb8;}</style></defs><path class="cls-1" d="M182.07,18.94c-4.9-5.28-11.76-7.98-18.49-10.11-9.67-3.07-19.68-4.94-29.72-6.26-24.3-3.19-49.31-3.5-73.64-.42C42.74,4.37,19.62,7.99,7.53,22.38S.56,61.51,6,77.93c7.7,23.22,19.82,44.99,33.27,65.33,10.44,15.79,22.17,33.05,37.33,44.76,4.05,3.13,7.83,4.99,12.86,3.21,5.56-1.98,10.28-6.22,14.52-10.19,14.57-13.66,26.63-30.07,37.77-46.56,12.49-18.48,24.03-37.87,33.23-58.21,6.64-14.7,14.47-33.09,10.63-49.56-.64-2.74-1.68-5.59-3.54-7.75-2.45-2.85-4.46,.71-5.12,3.05-.9,3.23-1.04,8.86,1.34,11.63,.3,.35,.54,.72,.81,1.08-.64-.85-.3-.66-.03,.09-.05-.15-.52-1.42,0,.09-.15-.45-.38-1.37,0,.24,.31,1.35-.17-2.22-.04-.19,.09,1.28-.06,1.4,.06-.02-.12,1.48-.31,2.94-.55,4.4,.33-1.98-.1,.44-.22,.97-.2,.84-.4,1.69-.62,2.53-.47,1.8-1,3.59-1.58,5.37-.87,2.71-2.53,7.01-3.99,10.49-7.77,18.54-17.87,36.12-28.76,52.98-10.56,16.36-22.01,32.42-35.25,46.74-4.54,4.91-9.35,9.76-14.94,13.48-1.52,1.01-4.61,2.67-5.39,2.88s-1.59,.31-2.43,.37c-.34,.02-.69-.03-1.02-.07-1.1-.14,.42,.22-.57-.18-5.08-2.05-9.41-6.72-13.1-10.6-6.51-6.83-12.39-14.26-17.96-21.86-13.21-18-24.95-37.3-34.07-57.69-4.07-9.1-7.6-18.45-9.71-28.22-.29-1.32-.55-2.82-.8-4.96-.11-.91-.2-1.82-.27-2.74-.1-1.36,.04,1.31,0-.02-.02-.61-.01-1.23-.03-1.84-.01-.48,.01-.96,.03-1.44,0,.09-.12,1.49-.03,.51,.08-.9,.18-1.79,.32-2.69s-.06,.33-.08,.42c.09-.4,.17-.84,.3-1.24,.6-1.84-.12-.1,.5-1.49,.97-2.18,2.34-4.11,4.7-6.2,2.76-2.44,6.04-4.33,9.33-5.94,8.49-4.16,17.81-6.46,27.07-8.14,22.33-4.03,45.45-4.43,68.03-2.76,17.85,1.31,38.15,3.09,54.3,11.53,1.26,.66,2.49,1.37,3.65,2.18,.94,.66,2.25,1.83,2.37,1.95,4.75,5.11,7.1-11.09,3.78-14.68Z"/></svg>