<?xml version="1.0" encoding="UTF-8"?><svg id="Layer_1" xmlns="http://www.w3.org/2000/svg" viewBox="0 0 21.05 21.07"><defs><style>.cls-1{fill:none;stroke:#fff;stroke-miterlimit:10;stroke-width:1px;}</style></defs><path class="cls-1" d="M8.98,1.71V19.18c0,1.18-.63,1.76-1.46,1.76H1.59c-.83,0-1.46-.58-1.46-1.76V1.71C.12,.59,.85,.12,1.6,.12H7.51c.75,0,1.48,.46,1.48,1.58Z"/><path class="cls-1" d="M20.92,1.71V19.18c0,1.18-.63,1.76-1.46,1.76h-5.94c-.83,0-1.46-.58-1.46-1.76V1.71c0-1.12,.73-1.58,1.48-1.58h5.9c.75,0,1.48,.46,1.48,1.58Z"/></svg>