<?xml version="1.0" encoding="UTF-8"?><svg id="Layer_1" xmlns="http://www.w3.org/2000/svg" viewBox="0 0 24.42 17.81"><defs><style>.cls-1{fill:none;stroke:#fff;stroke-miterlimit:10;stroke-width:1px;}</style></defs><path class="cls-1" d="M10.02,.21c.48-.15,1.19-.13,1.64,.22s.57,.68,.62,1.23c.05,1.09,.02,14.39,.02,14.39,0,0-.05,1.03-.7,1.43s-1.41,.18-1.87-.1c-.39-.24-8.62-7.24-9.26-7.89-.43-.44-.54-1.11,.09-1.59C1.98,6.81,9.29,.43,10.02,.21Z"/><path class="cls-1" d="M22,.21c.48-.15,1.19-.13,1.64,.22s.57,.68,.62,1.23c.05,1.09,.02,14.39,.02,14.39,0,0-.05,1.03-.7,1.43s-1.41,.18-1.87-.1c-.39-.24-8.62-7.24-9.26-7.89-.07-.07-.15-.12-.15-.12l.03-1.27c.06-.07,.13-.13,.21-.19C13.96,6.81,21.27,.43,22,.21Z"/></svg>