<?xml version="1.0" encoding="UTF-8"?><svg id="Layer_1" xmlns="http://www.w3.org/2000/svg" viewBox="0 0 387.54 26.77"><defs><style>.cls-1{fill:#fff;}</style></defs><path class="cls-1" d="M.12,5.27c9.28-1.84,18.77-2.17,28.18-2.8C75.42,.01,122.63-.01,169.81,0c47.18,.2,94.36,1.12,141.49,3.34,8.27,.52,16.58,.59,24.77,1.95,.31,.08,.59,.13,.99,.34,.09,.08,.27,.11,.39,.52,.06,.46-.27,.66-.33,.7-.23,.14-.38,.19-.55,.24-9.96,1.68-20.06,1.76-30.07,2.57-64.49,3.83-133.48,6.9-197.8,10.84-9.52,.72-20.46,1.16-29.21,2.75,0,.1,.74-.74,.32-1.59-.29-.53-.47-.5-.47-.53,6.3,1.2,18.4,1.13,25.1,1.48,94.27,2.35,188.93,.65,283.09,1.11,0,.08-.07,.15-.15,.15-84.86,2.22-169.83,3.61-254.72,2.52-13.68-.13-28.75-.63-42.48-1.23-3.61-.23-7.16-.34-10.78-.95-.43-.1-1-.19-1.49-.46-.13-.1-.44-.16-.8-.82-.49-.99,.35-1.99,.47-1.97,.55-.42,1.15-.55,1.64-.68,2.71-.58,5.42-.79,8.09-1.07,72.94-5.44,146.13-6.09,219.13-10.48,4.71-.27,9.41-.59,14.11-.95,5.31-.55,10.8-.57,15.96-1.8,.06-.03-.14,.04-.11,.35,.09,.26,.13,.2,.1,.2-3.58-.96-7.45-.93-11.15-1.27-4.7-.29-9.41-.52-14.12-.69-47.13-1.5-94.3-1.51-141.45-1.94-47.15-.25-94.32-.51-141.45,.85C18.95,3.91,9.47,4.04,.18,5.56c-.08,.02-.16-.03-.18-.12-.02-.08,.04-.16,.11-.18H.12Z"/></svg>